<?xml version="1.0" encoding="UTF-8" standalone="no"?>
<!-- Generator: Adobe Illustrator 18.0.0, SVG Export Plug-In . SVG Version: 6.00 Build 0)  -->

<svg
   xmlns:dc="http://purl.org/dc/elements/1.1/"
   xmlns:cc="http://creativecommons.org/ns#"
   xmlns:rdf="http://www.w3.org/1999/02/22-rdf-syntax-ns#"
   xmlns:svg="http://www.w3.org/2000/svg"
   xmlns="http://www.w3.org/2000/svg"
   xmlns:sodipodi="http://sodipodi.sourceforge.net/DTD/sodipodi-0.dtd"
   xmlns:inkscape="http://www.inkscape.org/namespaces/inkscape"
   version="1.1"
   id="Layer_1"
   x="0px"
   y="0px"
   viewBox="0 0 750 140"
   enable-background="new 0 0 375 70"
   xml:space="preserve"
   inkscape:version="0.91 r13725"
   sodipodi:docname="dockercon.svg"
   width="750"
   height="140"><metadata
     id="metadata6405"><rdf:RDF><cc:Work
         rdf:about=""><dc:format>image/svg+xml</dc:format><dc:type
           rdf:resource="http://purl.org/dc/dcmitype/StillImage" /><dc:title></dc:title></cc:Work></rdf:RDF></metadata><defs
     id="defs6403" /><sodipodi:namedview
     pagecolor="#ffffff"
     bordercolor="#666666"
     borderopacity="1"
     objecttolerance="10"
     gridtolerance="10"
     guidetolerance="10"
     inkscape:pageopacity="0"
     inkscape:pageshadow="2"
     inkscape:window-width="2560"
     inkscape:window-height="1456"
     id="namedview6401"
     showgrid="false"
     inkscape:zoom="0.71370645"
     inkscape:cx="-177.20017"
     inkscape:cy="-18.785063"
     inkscape:window-x="0"
     inkscape:window-y="64"
     inkscape:window-maximized="1"
     inkscape:current-layer="Layer_1" /><g
     id="g6357"
     transform="matrix(2.0078476,0,0,2.0078476,-2.6337939,0.76087206)"><path
       stroke-miterlimit="10"
       d="m 368.7,10.5 -71.8,0 c -1.4,0 -2.6,1.3 -2.6,3 l 0,44.2 c 0,1.7 1.2,3 2.6,3 l 71.8,0 c 2.5,0 3.6,-3.7 1.5,-5.4 L 358.8,41.8 c -3.2,-3.3 -3.2,-9 0,-12.3 L 370.2,16 c 2.1,-1.8 1,-5.5 -1.5,-5.5 z"
       id="path6359"
       inkscape:connector-curvature="0"
       style="fill:#2db7ea;stroke:#3a4e55;stroke-width:5;stroke-miterlimit:10" /><path
       stroke-miterlimit="10"
       d="m 7.7,60.7 115.7,0 c 1.4,0 2.6,-1.3 2.6,-3 l 0,-44.2 c 0,-1.7 -1.2,-3 -2.6,-3 l -115.7,0 c -2.5,0 -3.6,3.7 -1.5,5.4 l 11.4,13.5 c 3.2,3.3 3.2,9 0,12.3 L 6.2,55.3 c -2.1,1.7 -1,5.4 1.5,5.4 z"
       id="path6361"
       inkscape:connector-curvature="0"
       style="fill:#ffffff;stroke:#3a4e55;stroke-width:5;stroke-miterlimit:10" /><g
       id="g6363"><path
         d="M 336.4,66.2 40,66.2 c -3.6,0 -6.5,-1.1 -6.5,-4.6 l 0,-50.7 c 0,-3.6 2.9,-6.5 6.5,-6.5 l 296.4,0 c 3.6,0 6.5,2.9 6.5,6.5 l 0,48.9 c -0.1,3.5 -2.9,6.4 -6.5,6.4 z"
         id="path6365"
         inkscape:connector-curvature="0"
         style="fill:#ffffff" /><path
         stroke-miterlimit="10"
         d="m 336.4,4.4 -46.3,0 0,61.8 46.3,0 c 3.6,0 6.5,-2.9 6.5,-6.5 l 0,-48.8 C 342.8,7.3 340,4.4 336.4,4.4 Z"
         id="path6367"
         inkscape:connector-curvature="0"
         style="fill:#2db7ea;stroke:#3a4e55;stroke-width:5;stroke-miterlimit:10" /><g
         id="g6369"><path
           d="m 310.1,24.6 0,21.3 c 0,1.1 -0.9,2 -2,2 -1.1,0 -2,-0.9 -2,-2 l 0,-17.8 -1.4,0.8 c -0.3,0.2 -0.7,0.3 -1,0.3 -0.7,0 -1.3,-0.4 -1.7,-1 -0.6,-0.9 -0.3,-2.2 0.7,-2.7 l 4.4,-2.6 c 0,0 0.1,0 0.1,-0.1 0.1,0 0.1,-0.1 0.2,-0.1 0.1,0 0.1,0 0.2,0 0,0 0.1,0 0.1,0 0.1,0 0.2,0 0.3,0 0,0 0.1,0 0.1,0 l 0,0 c 0.1,0 0.2,0 0.3,0 0,0 0.1,0 0.1,0 0.1,0 0.1,0 0.2,0.1 0,0 0.1,0 0.1,0 0.1,0.1 0.1,0.1 0.2,0.1 0,0 0.1,0.1 0.1,0.1 0,0 0.1,0.1 0.1,0.1 0.1,0 0.1,0.1 0.1,0.1 0,0 0.1,0.1 0.1,0.1 0,0 0.1,0.1 0.1,0.1 l 0,0.1 c 0,0 0,0.1 0,0.1 0,0.1 0.1,0.1 0.1,0.2 0,0.1 0,0.1 0.1,0.2 0,0.1 0,0.1 0,0.2 0,0.1 0,0.2 0.1,0.3 0.3,0 0.3,0 0.3,0.1 z"
           id="path6371"
           inkscape:connector-curvature="0"
           style="fill:#ffffff" /><path
           d="m 327.3,32.6 c 1.8,1.7 2.6,4.1 2.6,6.4 0,2.3 -0.9,4.6 -2.6,6.3 -1.7,1.8 -4.1,2.6 -6.3,2.6 -0.1,0 -0.1,0 -0.1,0 -2.2,0 -4.6,-0.9 -6.3,-2.6 -0.8,-0.8 -0.8,-2.1 0,-2.9 0.8,-0.8 2.1,-0.8 2.9,0 0.9,1 2.2,1.4 3.5,1.4 1.2,0 2.5,-0.5 3.4,-1.4 0.9,-0.9 1.4,-2.2 1.4,-3.4 0,-1.3 -0.5,-2.5 -1.4,-3.5 -0.9,-1 -2.2,-1.4 -3.4,-1.4 -1.2,0 -2.5,0.4 -3.5,1.4 -0.8,0.8 -2.1,0.8 -2.9,0 -0.1,-0.1 -0.3,-0.3 -0.4,-0.5 0,-0.1 0,-0.1 0,-0.1 0,-0.1 0,-0.1 -0.1,-0.2 0,-0.1 0,-0.2 0,-0.3 0,0 0,0 0,-0.1 0,-0.2 0,-0.4 0,-0.6 l 1.1,-9.4 c 0.1,-0.6 0.4,-1.1 0.9,-1.4 0.1,0 0.1,0 0.1,-0.1 0,0 0.1,0 0.1,-0.1 0.3,-0.1 0.6,-0.2 0.9,-0.2 l 9.2,0 c 1.2,0 2.1,0.9 2.1,2.1 0,1.1 -0.9,2 -2.1,2 l -7.4,0 -0.4,3.6 c 0.8,-0.2 1.6,-0.3 2.4,-0.3 2.3,0 4.6,0.9 6.3,2.7 z"
           id="path6373"
           inkscape:connector-curvature="0"
           style="fill:#ffffff" /></g><g
         id="g6375"><path
           d="m 141.7,22.3 0,0 -0.9,0 c -0.7,0 -2.6,2 -3,2.5 -1.7,1.7 -3.5,3.4 -5.2,5.1 l 0,-13.7 c 0,-1.2 -0.8,-2.2 -2,-2.2 l -0.3,0 c -1.3,0 -2,1 -2,2.2 l 0,29.9 c 0,1.2 0.8,2.2 2,2.2 l 0.3,0 c 1.3,0 2,-1 2,-2.2 l 0,-5.3 3.4,3.3 c 1,1 2,2 3,3 0.5,0.5 1.3,1.3 2.1,1.3 l 0.4,0 c 1.1,0 1.8,-0.8 2,-1.8 l 0,-0.1 0,-0.5 c 0,-0.4 -0.1,-0.7 -0.3,-1 -0.2,-0.3 -0.5,-0.6 -0.7,-0.8 -0.6,-0.7 -1.2,-1.3 -1.9,-1.9 -2.3,-2.3 -4.6,-4.6 -6.9,-6.9 L 139,30 c 1,-1.1 2.1,-2.1 3.1,-3.2 0.5,-0.5 1.3,-1.4 1.3,-2.1 l 0,-0.4 c 0.1,-1.2 -0.7,-1.8 -1.7,-2 z"
           id="path6377"
           inkscape:connector-curvature="0"
           style="fill:#3a4e55" /><path
           d="M 122.8,24.1 122.6,24 c -1.9,-1.3 -4.1,-2 -6.5,-2 l -0.9,0 c -2.2,0 -4.3,0.6 -6.2,1.7 -4.1,2.4 -6.5,6.2 -6.5,11 l 0,0.9 c 0,1.1 0.1,2.2 0.5,3.3 1.9,6.3 6.8,9.9 13.4,9.5 1.9,-0.1 6.8,-0.7 6.8,-3.4 l 0,-0.4 c 0,-1.1 -0.8,-1.7 -1.8,-1.9 l -0.1,0 -0.8,0 -0.2,0.1 c -1.1,0.5 -2.7,1.2 -3.9,1.2 -1.3,0 -2.9,-0.1 -4.2,-0.7 -3.4,-1.6 -5.4,-4.3 -5.4,-8 0,-1.2 0.2,-2.4 0.8,-3.6 1.6,-3.3 4.2,-5.3 7.9,-5.2 0.7,0 2,0.1 2.6,0.4 0.6,0.3 2.1,1 2.7,1 l 0.3,0 0.1,0 c 1,-0.2 1.9,-0.8 1.9,-1.9 l 0,-0.4 c 0,-0.4 -0.2,-0.8 -0.4,-1.2 l 0.1,-0.3 z"
           id="path6379"
           inkscape:connector-curvature="0"
           style="fill:#3a4e55" /><path
           d="m 69.1,13.9 -0.4,0 c -1.3,0 -2,1 -2,2.2 l 0,9.3 c -2.3,-2 -5.1,-3.3 -8.3,-3.3 l -0.9,0 c -2.2,0 -4.3,0.6 -6.2,1.7 -4.1,2.4 -6.5,6.2 -6.5,11 l 0,0.9 c 0,2.2 0.6,4.3 1.7,6.2 2.4,4.1 6.2,6.5 11,6.5 l 0.9,0 c 2.2,0 4.3,-0.6 6.2,-1.7 4.1,-2.4 6.5,-6.2 6.5,-11 l 0,-19.6 c 0,-1.2 -0.8,-2.2 -2,-2.2 z m -3.6,25.6 c -1.7,2.9 -4.2,4.5 -7.6,4.5 -1.4,0 -2.7,-0.4 -3.9,-1 -3,-1.7 -4.7,-4.3 -4.7,-7.7 0,-1.2 0.2,-2.4 0.8,-3.6 1.6,-3.3 4.3,-5.2 8,-5.2 1.8,0 3.4,0.5 4.9,1.6 2.4,1.7 3.8,4.1 3.8,7.1 -0.1,1.5 -0.5,3 -1.3,4.3 z"
           id="path6381"
           inkscape:connector-curvature="0"
           style="fill:#3a4e55" /><path
           d="m 87,22.1 -0.6,0 c -2.2,0 -4.3,0.6 -6.2,1.7 -4.1,2.4 -6.5,6.2 -6.5,11 l 0,0.9 c 0,2.2 0.6,4.3 1.7,6.2 2.4,4.1 6.2,6.5 11,6.5 l 0.9,0 c 2.2,0 4.3,-0.6 6.2,-1.7 4.1,-2.4 6.5,-6.2 6.5,-11 l 0,-0.9 c 0,-2 -0.5,-4 -1.5,-5.8 C 96,24.6 92.1,22.1 87,22.1 Z m 7.4,17.4 c -1.7,2.8 -4.2,4.5 -7.5,4.5 -1.6,0 -3,-0.4 -4.3,-1.2 -2.8,-1.7 -4.5,-4.2 -4.5,-7.6 0,-1.2 0.2,-2.4 0.8,-3.6 1.6,-3.3 4.3,-5.2 8,-5.2 1.7,0 3.3,0.5 4.7,1.4 2.6,1.7 4.1,4.1 4.1,7.2 -0.1,1.7 -0.5,3.2 -1.3,4.5 z"
           id="path6383"
           inkscape:connector-curvature="0"
           style="fill:#3a4e55" /><path
           d="m 170.3,28.2 c -1.2,-2.1 -3,-3.7 -5.2,-4.8 -4,-2 -8.3,-2.2 -12.2,0.1 l -0.6,0.3 c -1.6,0.9 -3,2.1 -4,3.6 -3,4.4 -3.4,9.3 -0.7,14 l 0.3,0.5 c 1.1,2 2.7,3.6 4.6,4.6 4.2,2.3 8.6,2.6 12.8,0.2 l 0.4,-0.2 c 1.1,-0.7 1.4,-1.8 0.8,-3 -0.2,-0.5 -0.7,-0.8 -1.2,-1.1 l -0.1,-0.1 -0.1,0 c -0.8,-0.1 -2.9,0.8 -3.8,1.2 -1.6,0.3 -3.5,0.4 -5.1,-0.2 2.9,-2.5 5.8,-5.1 8.8,-7.6 1.3,-1.1 2.7,-2.4 4.1,-3.5 1.2,-0.9 2.3,-2.2 1.4,-3.8 l -0.2,-0.2 z m -8,4.1 c -3.3,2.8 -6.5,5.6 -9.8,8.4 -0.3,-0.4 -0.6,-0.8 -0.9,-1.2 -0.7,-1.2 -1.1,-2.5 -1.1,-3.9 -0.1,-3.5 1.2,-6.3 4.2,-8.1 2.3,-1.3 4.8,-1.7 7.4,-0.7 1.3,0.5 2.7,1.3 3.6,2.4 -1.1,1.2 -2.3,2.2 -3.4,3.1 z"
           id="path6385"
           inkscape:connector-curvature="0"
           style="fill:#3a4e55" /><path
           d="m 188.1,22.3 -0.4,0 c -2.6,0 -5,0.8 -7.1,2.3 -3.5,2.5 -5.6,6 -5.6,10.4 l 0,11.3 c 0,1.2 0.8,2.2 2,2.2 l 0.3,0 c 1.3,0 2,-1 2,-2.2 l 0,-10.8 c 0,-2.4 0.7,-4.5 2.4,-6.2 1.4,-1.3 3.3,-2.5 5.2,-2.5 1.5,0 3.3,-0.5 3.3,-2.3 0.1,-1.3 -0.8,-2.2 -2.1,-2.2 z"
           id="path6387"
           inkscape:connector-curvature="0"
           style="fill:#3a4e55" /></g><g
         id="g6389"><path
           d="m 215.2,26.9 c -0.7,-0.3 -1.9,-0.4 -2.6,-0.4 -3.7,-0.1 -6.4,1.9 -7.9,5.2 -0.5,1.1 -0.8,2.3 -0.8,3.6 0,3.8 2,6.4 5.4,8 1.2,0.6 2.8,0.7 4.2,0.7 1.2,0 2.9,-0.7 3.9,-1.2 l 0.2,-0.1 0.8,0 0.1,0 c 1,0.2 1.8,0.8 1.8,1.9 l 0,0.4 c 0,2.7 -4.9,3.3 -6.8,3.4 -6.6,0.5 -11.6,-3.2 -13.4,-9.5 -0.3,-1.1 -0.5,-2.2 -0.5,-3.3 l 0,-0.9 c 0,-4.8 2.4,-8.6 6.5,-11 1.9,-1.1 4,-1.7 6.2,-1.7 l 0.9,0 c 2.4,0 4.5,0.7 6.5,2 l 0.2,0.1 0.1,0.2 c 0.2,0.3 0.4,0.7 0.4,1.2 l 0,0.4 c 0,1.1 -0.8,1.7 -1.9,1.9 l -0.1,0 -0.3,0 c -0.9,0 -2.4,-0.7 -2.9,-0.9 z"
           id="path6391"
           inkscape:connector-curvature="0"
           style="clip-rule:evenodd;fill:#2db7ea;fill-rule:evenodd" /><path
           d="m 235.2,22.1 0.6,0 c 5.1,0 9,2.5 11.5,6.9 1,1.8 1.5,3.7 1.5,5.8 l 0,0.9 c 0,4.8 -2.4,8.6 -6.5,11 -1.9,1.1 -4,1.7 -6.2,1.7 l -0.9,0 c -4.8,0 -8.6,-2.4 -11,-6.5 -1.1,-1.9 -1.7,-4 -1.7,-6.2 l 0,-0.9 c 0,-4.8 2.4,-8.6 6.5,-11 1.9,-1.1 4,-1.7 6.2,-1.7 z m -8.3,13.2 c 0,3.4 1.6,5.8 4.5,7.6 1.3,0.8 2.8,1.2 4.3,1.2 3.3,0 5.8,-1.7 7.5,-4.5 0.8,-1.3 1.2,-2.8 1.2,-4.4 0,-3.1 -1.5,-5.5 -4.1,-7.2 -1.4,-0.9 -3,-1.4 -4.7,-1.4 -3.7,0 -6.4,1.9 -8,5.2 -0.5,1 -0.7,2.2 -0.7,3.5 z"
           id="path6393"
           inkscape:connector-curvature="0"
           style="clip-rule:evenodd;fill:#2db7ea;fill-rule:evenodd" /><path
           d="m 277.9,29 c -2.5,-4.5 -6.4,-6.9 -11.5,-6.9 l -0.6,0 c -2.2,0 -4.3,0.6 -6.2,1.7 -4.1,2.4 -6.5,6.2 -6.5,11 l 0,0.3 0,11 c 0,1.2 0.8,2.2 2,2.2 l 0.3,0 c 1.3,0 2,-1 2,-2.2 l 0,-11 0,0 c 0,-1.2 0.3,-2.4 0.8,-3.5 1.6,-3.3 4.3,-5.2 8,-5.2 1.7,0 3.3,0.5 4.7,1.4 2.6,1.7 4.1,4.1 4.1,7.2 l 0,11 c 0,1.2 0.8,2.2 2,2.2 l 0.3,0 c 1.3,0 2,-1 2,-2.2 l 0,-11 0,-0.3 c 0.1,-1.9 -0.4,-3.9 -1.4,-5.7 z"
           id="path6395"
           inkscape:connector-curvature="0"
           style="fill:#2db7ea" /></g><rect
         x="287.5"
         y="4.4000001"
         width="5.0999999"
         height="62.400002"
         id="rect6397"
         style="fill:#3a4e55" /><path
         stroke-miterlimit="10"
         d="M 336.4,66.2 40,66.2 c -3.6,0 -6.5,-2.9 -6.5,-6.5 l 0,-48.8 c 0,-3.6 2.9,-6.5 6.5,-6.5 l 296.4,0 c 3.6,0 6.5,2.9 6.5,6.5 l 0,48.9 c -0.1,3.5 -2.9,6.4 -6.5,6.4 z"
         id="path6399"
         inkscape:connector-curvature="0"
         style="fill:none;stroke:#3a4e55;stroke-width:5;stroke-miterlimit:10" /></g></g></svg>