<?xml version="1.0" encoding="UTF-8" standalone="no"?>
<!-- Created with Inkscape (http://www.inkscape.org/) -->

<svg
   xmlns:sketch="http://www.bohemiancoding.com/sketch/ns"
   xmlns:dc="http://purl.org/dc/elements/1.1/"
   xmlns:cc="http://creativecommons.org/ns#"
   xmlns:rdf="http://www.w3.org/1999/02/22-rdf-syntax-ns#"
   xmlns:svg="http://www.w3.org/2000/svg"
   xmlns="http://www.w3.org/2000/svg"
   xmlns:sodipodi="http://sodipodi.sourceforge.net/DTD/sodipodi-0.dtd"
   xmlns:inkscape="http://www.inkscape.org/namespaces/inkscape"
   width="47.021481mm"
   height="75.522545mm"
   viewBox="0 0 166.61155 267.59957"
   id="svg4293"
   version="1.1"
   inkscape:version="0.91 r13725"
   sodipodi:docname="lightning_storm.svg">
  <defs
     id="defs4295" />
  <sodipodi:namedview
     id="base"
     pagecolor="#000000"
     bordercolor="#666666"
     borderopacity="1.0"
     inkscape:pageopacity="0"
     inkscape:pageshadow="2"
     inkscape:zoom="3.959798"
     inkscape:cx="117.57982"
     inkscape:cy="119.30512"
     inkscape:document-units="px"
     inkscape:current-layer="layer1"
     showgrid="false"
     fit-margin-top="0"
     fit-margin-left="0"
     fit-margin-right="0"
     fit-margin-bottom="0"
     inkscape:window-width="2560"
     inkscape:window-height="1456"
     inkscape:window-x="0"
     inkscape:window-y="64"
     inkscape:window-maximized="1" />
  <metadata
     id="metadata4298">
    <rdf:RDF>
      <cc:Work
         rdf:about="">
        <dc:format>image/svg+xml</dc:format>
        <dc:type
           rdf:resource="http://purl.org/dc/dcmitype/StillImage" />
        <dc:title></dc:title>
      </cc:Work>
    </rdf:RDF>
  </metadata>
  <g
     inkscape:label="Layer 1"
     inkscape:groupmode="layer"
     id="layer1"
     transform="translate(-291.7734,-277.36705)">
    <g
       transform="translate(320.79101,385.71935)"
       style="fill:none;fill-rule:evenodd;stroke:none;stroke-width:1"
       id="Page-1"
       sketch:type="MSPage">
      <g
         id="Group"
         sketch:type="MSLayerGroup"
         transform="translate(-435,0)" />
      <g
         style="stroke:#7a8490;stroke-width:2"
         id="logo"
         sketch:type="MSLayerGroup"
         transform="translate(16,23)">
        <path
           inkscape:connector-curvature="0"
           d="m 68.326211,16.750974 0,-14.7308499 c 0,-0.5948586 -0.484347,-1.07977243 -1.085503,-1.10291868 -0.01416,-5.7865e-4 -0.02832,-0.004051 -0.04366,-0.004051 l -16.8843,0 c -5.9e-4,0 -0.0012,-5.7866e-4 -0.0018,-5.7866e-4 -0.0012,0 -0.0018,5.7866e-4 -0.0024,5.7866e-4 -0.01357,0 -0.02773,0.003472 -0.04189,0.004051 -0.604107,0.0231462 -1.087864,0.50748148 -1.087864,1.10581198 0,0.2227826 0.06843,0.4299415 0.183474,0.6035384 l 0.05841,0.074647 10.363609,13.4277162 0.416503,0.539307 c 0.148667,0.186906 0.237159,0.421841 0.237159,0.678186 0,0.123253 -0.02065,0.241878 -0.0584,0.35298 l -0.312672,0.841366 -10.792501,32.007209 -0.0083,0.02083 c -0.04366,0.109366 -0.06725,0.227411 -0.07433,0.350087 -0.0012,0.0191 -0.0059,0.03645 -0.0059,0.05613 0,0.222783 0.06843,0.429942 0.184063,0.603539 l 0.05841,0.0758 c 0.207072,0.260395 0.526233,0.431098 0.890231,0.431098 l 0.02124,0 16.712626,0 0.04071,-0.113416 0.103831,0 c 0.621214,0 1.129159,-0.497645 1.129159,-1.107548 l 0,-2.82037 0,-31.293148 0,0 z"
           id="Fill-26"
           sketch:type="MSShapeGroup" />
        <path
           inkscape:connector-curvature="0"
           d="m 33.188018,18.540989 -0.312673,-0.841366 c -0.03776,-0.111102 -0.05841,-0.229726 -0.05841,-0.35298 0,-0.256345 0.08849,-0.491279 0.237159,-0.678764 l 0.416503,-0.539307 10.36361,-13.4271381 c 0.173444,-0.2488222 0.241878,-0.4559811 0.241878,-0.6781851 0,-0.5989091 -0.483167,-1.08266567 -1.087863,-1.10581191 -0.05958,-0.004629 -15.826524,0 -15.826524,0 -0.132738,-0.004051 -0.143357,-5.7866e-4 -0.154566,0 C 26.723367,0.93653259 26.46851,1.0557357 26.279726,1.2414843 L 15.336203,13.995067 c -0.377566,0.480863 -0.686699,0.376705 -0.686699,-0.229727 l 0,-11.7235742 C 14.645965,1.4278116 14.14038,0.93537523 13.522115,0.93537523 l -12.015463,0 c -0.61649527,0 -1.11795072,0.48780717 -1.12620998,1.09076687 l -0.00295,48.9548909 c 0.00531,0.613376 0.51030466,1.106391 1.12915968,1.106391 l 12.0142833,0 c 0.617085,0 1.11795,-0.488386 1.12621,-1.090188 l 0.0024,-13.919575 c 0,-0.611061 0.299694,-1.509714 0.664871,-2.003307 l 5.274722,-7.120365 c 0.365177,-0.493015 0.836545,-0.427048 1.048927,0.145243 l 7.292932,23.266608 c 0.07079,0.138298 0.07905,0.154501 0.08849,0.170124 0.08141,0.118625 0.09616,0.135406 0.11091,0.152187 0.1174,0.123254 0.161056,0.15913 0.206482,0.191535 0.101471,0.06076 0.135688,0.08043 0.172264,0.09779 0.1115,0.04456 0.153387,0.05787 0.197043,0.06886 0.130378,0.02893 0.197042,0.03819 0.266656,0.03877 0.02478,0.0023 12.94227,0 12.94227,0 0.385236,0 0.704398,-0.170703 0.91147,-0.431099 0.174034,-0.249401 0.242468,-0.456559 0.242468,-0.679342 0,-0.143507 -0.0295,-0.28007 -0.08023,-0.405638 L 33.188018,18.540989 Z"
           id="Fill-27"
           sketch:type="MSShapeGroup" />
      </g>
    </g>
    <path
       inkscape:connector-curvature="0"
       style="fill:#7a8490;fill-opacity:1"
       d="m 316.26088,520.12864 c 11.60274,-4.012 18.02127,0.19227 24.6653,3.50795 4.09506,2.04325 9.4592,3.67872 14.64224,1.76008 1.72616,-0.6408 3.20744,-1.65907 4.91726,-3.21125 1.25084,-1.1349 2.32514,-2.79869 3.36305,-4.72231 2.50291,-4.64044 4.20486,-10.90332 6.02074,-16.00531 2.54536,-7.14547 12.94549,-40.54357 12.94549,-40.54357 l 0.4407,0.32521 c 0,0 0.31829,0.18988 0.16492,0.6387 -0.15431,0.44995 -7.61272,24.7061 -8.33923,27.10574 -4.44797,14.70771 -8.06966,29.30586 -13.13979,34.18251 -5.27845,5.07598 -12.06283,7.03814 -22.58362,1.87483 -7.51071,-3.68659 -11.58836,-4.93088 -16.6403,-4.02174 -3.06988,0.55429 -7.22905,1.7788 -10.63601,4.09187 -1.55502,1.0558 -3.71411,2.06485 -7.63307,5.94436 -3.91809,3.87985 -6.18807,7.96351 -6.94698,9.26602 -1.23528,2.11667 -1.63279,3.65943 -2.23797,4.16128 -0.52194,0.43343 -1.21303,0.68931 -2.19482,0.27015 -0.98319,-0.42073 -1.45922,-1.42652 -1.2447,-2.41714 0.20378,-0.95269 0.96431,-2.0826 1.98922,-3.99472 2.09192,-3.90416 9.31325,-13.67226 22.44757,-18.21266"
       id="path5077" />
    <path
       id="path12597"
       d="M 426.25145,350.03059"
       inkscape:connector-curvature="0"
       style="fill:#ffffff;stroke:#000000;stroke-width:0.27560017" />
    <path
       id="path12599"
       d="M 426.25145,350.03059"
       inkscape:connector-curvature="0"
       style="opacity:0.477778;fill:#ffffff;stroke:#000000;stroke-width:0.27560017" />
    <path
       d="m 375.27772,278.74505 c -13.25665,0 -23.99287,8.793 -27.54715,20.56056 -4.0469,-2.06361 -8.43276,-3.54493 -13.31749,-3.54493 -16.11231,0 -29.18903,12.70496 -29.18898,28.3594 0,3.28362 0.94872,6.28275 2.00676,9.21679 -8.01808,4.37155 -13.68236,12.41576 -13.68236,21.97854 0,14.08894 11.76898,25.5235 26.27012,25.52345 1.03404,0 109.88416,0 110.9182,0 14.50102,0 26.27013,-11.43451 26.27013,-25.52345 0,-9.56278 -5.66434,-17.60699 -13.68236,-21.97854 1.05802,-2.93401 2.00674,-5.93323 2.00674,-9.21679 0,-15.65439 -13.07667,-28.35935 -29.18902,-28.3594 -4.88467,0 -9.27053,1.48132 -13.31744,3.54493 -3.55432,-11.76756 -14.29051,-20.56056 -27.54715,-20.56056 z"
       id="path12329"
       stroke-miterlimit="2"
       inkscape:connector-curvature="0"
       style="fill:#000000;fill-opacity:0;stroke:#7a8490;stroke-width:2.75600171;stroke-miterlimit:2;stroke-dashoffset:0;stroke-opacity:1" />
    <g
       transform="matrix(0.08931501,0,0,0.08931501,380.60585,358.24356)"
       id="g6116"
       style="fill:#7a8490;fill-opacity:1">
      <title
         id="title6118">Layer 1</title>
      <path
         style="fill:#7a8490;fill-opacity:1;fill-rule:evenodd;stroke:#ff0000;stroke-width:0"
         inkscape:connector-curvature="0"
         d="M 516.06854,31.096121 213.41705,324.89444 376.55542,330.32248 117.71051,575.4397 227.34552,577.38831 45.682861,768.61993 484.63147,535.35846 321.23553,537.00067 651.98218,285.34546 473.07495,284.9256 767.02563,23.25316 516.06854,31.09612 Z"
         id="path4828" />
    </g>
  </g>
</svg>
